<?xml version="1.0" standalone="no"?><!DOCTYPE svg PUBLIC "-//W3C//DTD SVG 1.1//EN" "http://www.w3.org/Graphics/SVG/1.1/DTD/svg11.dtd"><svg t="1747830174376" class="icon" viewBox="0 0 1024 1024" version="1.1" xmlns="http://www.w3.org/2000/svg" p-id="11968" xmlns:xlink="http://www.w3.org/1999/xlink" width="24" height="24"><path d="M527.130062 0c8.846907 1.091119 17.693814 1.872595 26.378527 3.31759 95.841493 15.983412 167.103329 65.806244 209.878125 153.950927 15.953922 32.895749 22.780786 68.150674 23.178896 105.130746h-67.649349c-1.474485-11.795876-2.049533-23.665476-4.423453-35.195945-13.388319-63.181661-50.515839-108.03548-107.637369-136.950121C571.305617 72.249741 533.278662 65.865223 493.850946 69.197558c-87.318972 7.372423-163.004262 67.737818-182.187305 151.871904a179.739661 179.739661 0 0 0-4.423454 37.628845c-0.501325 47.56687-0.191683 95.13374-0.191683 142.715355v7.682064H922.925938a42.037553 42.037553 0 0 1 0.530814 4.541413c0 70.952194 1.105863 141.948623-0.45709 212.871328-1.990554 90.695542-32.748301 171.615252-89.339016 242.449487-52.152517 65.290174-118.548554 110.276696-198.052759 135.652575a380.933072 380.933072 0 0 1-104.968552 18.445801c-2.742541 0.088469-5.470338 0.589794-8.212879 0.899435h-21.468494c-2.329686-0.294897-4.659371-0.737242-7.018547-0.855201a414.00576 414.00576 0 0 1-76.938601-10.586798c-79.047114-18.99136-147.124064-57.504896-203.2282-116.336828Q121.101263 799.170602 103.584387 665.641286c-1.327036-10.159198-2.285451-20.362631-3.420804-30.536575V409.125216h137.731598v-7.505126-143.850709A219.594978 219.594978 0 0 1 255.161394 171.040203C295.945636 75.19871 369.389709 21.040894 470.981692 3.406059 480.108751 1.828361 489.427493 1.120608 498.584041 0zM169.139968 478.367008v136.537266a331.862228 331.862228 0 0 0 8.360327 74.240295c16.21933 70.480359 51.267826 130.182237 105.057021 178.279921 58.286373 52.108282 126.805668 81.273586 204.953347 86.817648a334.9439 334.9439 0 0 0 115.452137-11.338786c71.143877-20.067734 130.37392-58.743463 176.687478-116.366317 47.964981-59.672388 73.414584-128.058979 74.844834-204.761663 0.869946-46.564221 0.353876-93.157931 0.442345-139.736897a28.015206 28.015206 0 0 0-0.442345-3.671467z" p-id="11969" fill="#e3e3e3"></path><path d="M460.158975 685.635295l-63.107937-37.363437q-6.649925-3.922129-13.27036-7.859002c-13.580002-8.06543-18.268863-23.680221-11.279807-37.466652a28.192144 28.192144 0 0 1 36.626195-12.78378c8.419307 3.848405 16.21933 8.950121 24.299505 13.653726 15.880198 9.303997 31.701417 18.711208 47.552125 28.015206 1.651423 0.97316 3.34708 1.85785 5.897938 3.243866v-7.136505-76.083401c0-17.546366 12.193987-30.595554 28.605-30.713512s28.560765 12.400415 28.737703 29.902546c0.265407 25.950927 0 51.901855 0.088469 77.867527 0 1.91683 0.162193 3.83366 0.294897 6.63518 2.462389-1.327036 4.305495-2.255961 6.089621-3.302846q28.914641-17.030296 57.785048-34.104826c10.970165-6.487732 22.117268-7.534616 32.969473-0.147449 17.487386 11.958069 16.779634 36.655685-1.356525 47.714319-20.4511 12.459394-41.167607 24.491188-61.751412 36.714664-1.695657 1.002649-3.361825 2.049533-5.66202 3.465039 2.182237 1.40076 3.907384 2.580348 5.721 3.656721 20.96717 12.341435 42.022808 24.579657 62.916254 37.068541 10.321392 6.1486 15.21668 15.629536 13.904389 27.513881s-8.227624 20.406866-19.964521 24.107821c-8.640479 2.727796-16.750144 0.928925-24.461698-3.656721q-29.828822-17.782283-59.790346-35.387628c-1.798871-1.076374-3.686211-2.020044-6.502477-3.553508v84.045617c0 12.886995-5.23442 22.707061-17.177745 28.015206-19.522175 8.846907-40.120723-5.131206-40.297661-27.248474-0.191683-25.567561 0-51.120378 0-76.673194v-7.18074c-2.550858 1.371271-4.26126 2.226472-5.897938 3.199631-20.465845 12.061283-40.857966 24.240525-61.38279 36.18385-13.403064 7.800023-28.796682 5.145951-38.026956-6.237069-11.102868-13.653727-7.372423-33.028453 8.271859-42.406175 21.291556-12.81327 42.81903-25.479092 64.287524-38.130169 1.680912-0.987905 3.332335-2.093768 5.883193-3.568253z" p-id="11970" fill="#e3e3e3"></path></svg>