<?xml version="1.0" standalone="no"?><!DOCTYPE svg PUBLIC "-//W3C//DTD SVG 1.1//EN" "http://www.w3.org/Graphics/SVG/1.1/DTD/svg11.dtd"><svg t="1747825622315" class="icon" viewBox="0 0 1024 1024" version="1.1" xmlns="http://www.w3.org/2000/svg" p-id="22440" xmlns:xlink="http://www.w3.org/1999/xlink" width="24" height="24"><path d="M941.533867 222.685867s-114.414933 114.346667-144.452267 144.725333a20.206933 20.206933 0 0 1-19.2512 6.621867c-10.171733-1.570133-20.343467-2.594133-30.5152-3.822934l-83.899733-9.966933c-4.7104-40.413867-9.557333-80.008533-13.653334-119.671467-0.4096-3.754667 2.2528-8.874667 5.051734-11.741866 34.679467-35.0208 131.549867-131.6864 145.681066-145.8176-30.72-14.5408-83.5584-20.2752-122.88-13.858134a242.005333 242.005333 0 0 0-192.512 315.733334c2.525867 7.850667 0.887467 12.424533-4.7104 18.0224-126.1568 125.815467-252.1088 251.904-378.129066 377.856a175.377067 175.377067 0 0 0-12.151467 13.1072 99.464533 99.464533 0 0 0 20.343467 143.496533c41.233067 28.672 93.184 23.483733 130.048-13.312 126.498133-126.429867 252.996267-252.928 379.2896-379.562667 6.280533-6.280533 11.264-8.3968 20.411733-5.3248 42.257067 14.404267 85.469867 16.110933 128.887467 6.075734a241.937067 241.937067 0 0 0 181.248-293.819734c-2.116267-8.874667-5.3248-17.681067-8.874667-28.740266z" fill="#e3e3e3" p-id="22441"></path></svg>