<?xml version="1.0" standalone="no"?><!DOCTYPE svg PUBLIC "-//W3C//DTD SVG 1.1//EN" "http://www.w3.org/Graphics/SVG/1.1/DTD/svg11.dtd"><svg t="1747880986555" class="icon" viewBox="0 0 1024 1024" version="1.1" xmlns="http://www.w3.org/2000/svg" p-id="19189" xmlns:xlink="http://www.w3.org/1999/xlink" width="24" height="24"><path d="M116.778667 950.741333h790.442666V1024H116.778667zM153.642667 91.733333h148.224v61.056H153.642667z m0-91.733333h148.224v61.056H153.642667z m568.32 91.733333h148.224v61.056h-148.224z m0-91.136h148.224v61.056h-148.224zM437.888 91.733333h148.224v61.056H437.888z m0.426667-91.136h147.328v61.056H438.314667z m505.984 194.432H42.709333v671.445334a36.821333 36.821333 0 0 0 37.034667 36.608h864.554667a36.821333 36.821333 0 0 0 37.034666-36.608V231.637333a36.821333 36.821333 0 0 0-37.034666-36.608zM450.858667 764.16l53.802666-170.197333H344.106667l114.56-260.266667h122.282666l-85.12 167.253333h184.32z" p-id="19190" fill="#e3e3e3"></path></svg>