<?xml version="1.0" standalone="no"?><!DOCTYPE svg PUBLIC "-//W3C//DTD SVG 1.1//EN" "http://www.w3.org/Graphics/SVG/1.1/DTD/svg11.dtd"><svg t="1747880454258" class="icon" viewBox="0 0 1024 1024" version="1.1" xmlns="http://www.w3.org/2000/svg" p-id="14228" xmlns:xlink="http://www.w3.org/1999/xlink" width="24" height="24"><path d="M134.446219 64.652619V12.928924c0-7.109209 5.821715-12.928924 12.930924-12.928924h51.719696c7.111208 0 12.930924 5.819715 12.930924 12.928924v51.723695H134.446219z m232.746629 0V12.928924c0-7.109209 5.813718-12.928924 12.928925-12.928924h51.715697c7.117206 0 12.936921 5.819715 12.936921 12.928924v51.723695h-77.581543z m0 0M76.263061 82.033795v230.80939c0 60.768144 49.134711 109.902855 109.908852 109.902854h193.94986c60.768144 0 109.896857-49.134711 109.896856-109.902854V82.679542l-413.755568-0.645747z" fill="#e3e3e3" p-id="14229"></path><path d="M509.40102 63.289154v249.552031c0 71.114082-58.165166 129.29924-129.279247 129.29924H186.171913c-71.122079 0-129.307237-58.185158-129.307237-129.29924V62.641408l452.536344 0.647746zM221.727954 482.870436h-0.647745c-3.230732 0.647746-5.819715 3.878477-5.819716 7.117206l7.756955 64.646621c0.647746 3.236729 3.236729 5.815717 6.465462 5.815717h81.46202c3.230732 0 5.819715-2.578988 6.465462-5.815717l7.111208-64.646621v-0.645747c0-3.878477-2.582986-6.46946-6.467461-6.46946h-96.326185z" fill="#e3e3e3" p-id="14230"></path><path d="M221.727954 463.472051h96.973931c14.224416 0 25.863846 11.64143 25.863846 25.865846v3.228732l-7.115207 64.65062c-1.295491 12.930924-12.283178 22.629116-25.857848 22.629116h-82.109766c-12.926925 0-23.920609-9.700192-25.857849-22.629116l-7.762952-64.65062c-1.933241-14.222417 8.412697-27.155339 22.627117-29.096577h3.238728zM250.816535 628.981076v197.830336c0 98.27342 79.52478 177.790203 177.792203 177.790203h16.165653c98.241433 0 177.760215-79.514784 177.760216-177.790203v-197.830336h-42.019505v196.544841c0 79.516783-64.652619 143.521657-143.503663 143.521656-78.871037 0-143.523656-64.654618-143.523656-143.521656v-196.544841h-42.671248z" fill="#e3e3e3" p-id="14231"></path><path d="M312.238422 609.58469v215.941227c0 68.527098 55.602172 124.123272 124.12727 124.123272 68.511104 0 124.107278-55.596174 124.107279-124.123272V609.58469h80.812274v217.226722c0 108.621358-88.56923 197.188588-197.1566 197.188588h-16.167653c-108.611362 0-197.180591-88.56723-197.180591-197.188588V609.58469h81.458021z" fill="#e3e3e3" p-id="14232"></path><path d="M951.613417 806.127532V600.534243c0-93.741199-76.288051-170.027251-170.037247-170.027251H750.546352c-93.743198 0-170.02925 76.286052-170.02925 170.027251v205.593289h42.019504v-196.542842c0-79.516783 64.652619-143.521657 143.531652-143.521656 78.867039 0 143.519657 64.654618 143.519658 143.521656v196.542842h42.025501z" fill="#e3e3e3" p-id="14233"></path><path d="M890.189531 825.525917V609.58469c0-68.527098-55.596174-124.123272-124.123272-124.123272-68.533095 0-124.135267 55.596174-124.135267 124.123272v215.941227h-80.812275v-224.991674c0-104.734883 84.688753-189.423636 189.425636-189.423636h31.029818c104.736883 0 189.433632 84.688753 189.433633 189.423636v224.991674h-80.818273z" fill="#e3e3e3" p-id="14234"></path></svg>