<?xml version="1.0" standalone="no"?><!DOCTYPE svg PUBLIC "-//W3C//DTD SVG 1.1//EN" "http://www.w3.org/Graphics/SVG/1.1/DTD/svg11.dtd"><svg t="1747880441127" class="icon" viewBox="0 0 1024 1024" version="1.1" xmlns="http://www.w3.org/2000/svg" p-id="13002" xmlns:xlink="http://www.w3.org/1999/xlink" width="24" height="24"><path d="M637.15551 169.4h-88.5v-43.8H420.25551v43.8h-88.6c-27.2 0-49.6 22.4-49.6 49.6v627.4c0 27.2 22.4 48.6 49.6 48.6h305.5c27.2 0 49.6-21.4 49.6-48.6V219c0-27.2-22.4-49.6-49.6-49.6zM472.35551 682.5l-2.1-121.3-87 2 118.5-198.1 2.1 121.3 109-0.9-140.5 197zM909.55551 212.6c73.8 90.4 116.3 203.4 114.6 326.7-1.9 141-61 268.3-157.8 359.1L828.55551 862c87.1-81.6 141.3-195.3 143-322.7 1.7-127.3-49.4-241.1-134.3-327.6l38.7-36.4c11.8 11.9 23 24.3 33.6 37.3z m-105.4 81.9c55.4 68.5 87.2 153.1 86 244.6-1.3 104.6-50.5 200.1-118.4 272.8L734.05551 775.5c58.2-63.6 97.5-145.4 98.8-236.4 1.2-91-35.9-172.8-97.3-236.6l43.5-36.4c8.8 9.1 17.2 18.6 25.1 28.4z m0 0M151.15551 373.3c47.9 42.7 78.2 98.5 81.3 159.8 3.1 61.3-25.8 120.2-64.5 167.3l-38.1-30.8c34.5-38.7 50.5-84.6 48-133.6-2.5-49.1-27.8-96.9-61.5-128l34.8-34.7z m-98.2 119C78.05551 493.5 99.05551 514 100.25551 539.5c1.3 27.3-20.4 51.4-47.8 53C25.15551 594 1.25551 572.6 0.05551 545.3c-1.3-27.3 20.4-51.4 47.8-53 1.7-0.1 3.4-0.1 5.1 0z m135.3 5.1" fill="#e3e3e3" p-id="13003"></path></svg>